<svg data-v-0dd9719b="" version="1.0" xmlns="http://www.w3.org/2000/svg" xmlns:xlink="http://www.w3.org/1999/xlink" width="100%" height="100%" viewBox="0 0 340.000000 250.000000" preserveAspectRatio="xMidYMid meet" color-interpolation-filters="sRGB" style="margin: auto;"> <rect data-v-0dd9719b="" x="0" y="0" width="100%" height="100%" fill="#fff" fill-opacity="1" class="background"></rect> <rect data-v-0dd9719b="" x="0" y="0" width="100%" height="100%" fill="url(#watermark)" fill-opacity="1" class="watermarklayer"></rect> <g data-v-0dd9719b="" fill="#0b56a6" class="icon-text-wrapper icon-svg-group iconsvg" transform="translate(48.34906768798828,98.21213340759277)"><g class="iconsvg-imagesvg" transform="translate(0,0)"><g><rect fill="#0b56a6" fill-opacity="0" stroke-width="2" x="0" y="0" width="60" height="53.57573376432035" class="image-rect"></rect> <svg x="0" y="0" width="60" height="53.57573376432035" filtersec="colorsb8805501641" class="image-svg-svg primary" style="overflow: visible;"><svg xmlns="http://www.w3.org/2000/svg" viewBox="0 -0.011434555053710938 424.6799621582031 379.20831298828125"><path d="M212.33 145.28a44.31 44.31 0 1 1-44.29 44.33 44.32 44.32 0 0 1 44.29-44.33z" fill="#da251d" fill-rule="evenodd"></path><path d="M307.2 25.47l-.05-.05c-14-8.06-37.41 1.17-64 22.66-29.28 23.64-60.88 61.71-87.94 108.54l-.07.14c-27 46.79-44.1 93.16-49.95 130.28-5.32 33.74-1.6 58.65 12.38 66.73 14 8.07 37.4-1.18 64-22.67 29.25-23.64 60.89-61.71 87.93-108.54 27-46.84 44.17-93.23 50-130.42 5.32-33.7 1.66-58.58-12.28-66.67zm-78.27 4.88c32.56-26.34 63.78-37 86.55-26.17h.27l2.72 1.56c23 13.28 30.27 46.66 23.47 89.87-6.14 39.06-23.69 87.23-51.25 135.57v.07l-1.57 2.72c-28.43 49.23-62 89.53-93.35 114.85-34 27.51-66.57 37.9-89.56 24.64-23-13.27-30.25-46.66-23.42-89.87 6.26-39.82 24.36-89 52.8-138.31v-.05c28.42-49.26 62-89.52 93.34-114.88z" fill="#0b56a6" fill-rule="evenodd"></path><path d="M401.86 189.61c0-16.17-19.69-31.82-51.49-44.08-35.08-13.48-83.86-21.85-138-21.85s-102.95 8.37-138 21.85c-31.88 12.26-51.58 27.91-51.58 44.08s19.68 31.81 51.5 44c35.07 13.5 83.85 21.85 138 21.85s103-8.35 138-21.85c31.8-12.23 51.49-27.89 51.49-44zm-43.39-65.28c40.91 15.76 66.21 38.72 66.21 65.28s-25.3 49.5-66.21 65.24c-37.65 14.49-89.34 23.45-146.14 23.45s-108.48-9-146.12-23.45C25.3 239.11 0 216.12 0 189.61s25.3-49.52 66.21-65.28c37.64-14.47 89.33-23.45 146.12-23.45s108.46 8.98 146.14 23.45z" fill="#0b56a6" fill-rule="evenodd"></path><path d="M307.1 353.77c14-8.08 17.7-33 12.38-66.73-5.84-37.12-23-83.49-49.93-130.28l-.09-.14c-27.05-46.83-58.66-84.87-87.91-108.54-26.57-21.47-50-30.72-64-22.66l-.82.49c-13.32 8.52-16.79 33.14-11.56 66.23 5.85 37.19 23 83.58 50 130.42 27 46.83 58.68 84.9 88 108.54 26.54 21.49 50 30.74 63.92 22.67zm34.84-70.18c6.8 43.21-.46 76.6-23.42 89.87s-55.58 2.89-89.61-24.64c-31.32-25.32-64.92-65.62-93.36-114.85l-1.57-2.72v-.07c-27.53-48.34-45.09-96.47-51.19-135.57-6.83-43.19.47-76.57 23.44-89.85.38-.22.77-.42 1.16-.63l1.59-.93h.24c22.78-10.8 54-.17 86.58 26.17 31.32 25.32 65 65.62 93.38 114.86v.05c28.39 49.29 46.5 98.49 52.76 138.31z" fill="#0b56a6" fill-rule="evenodd"></path></svg></svg> <!----></g></g> <g transform="translate(67,2.4666175842285156)"><g data-gra="path-name" fill-rule="" class="tp-name iconsvg-namesvg" transform="translate(0,0)"><g transform="scale(1)"><g><path d="M33.52-14.54L33.52-14.54 17.93-14.54Q19.98-9.54 24.44-6.19L24.44-6.19Q28.91-2.88 34.81-1.19L34.81-1.19 34.74-0.79Q32.47-0.47 31.57 2.12L31.57 2.12Q20.48-2.84 17.17-14.54L17.17-14.54 12.1-14.54 12.1-1.87Q15.48-2.81 20.63-4.39L20.63-4.39 20.77-3.96Q16.88-1.3 10.48 2.34L10.48 2.34Q10.19 2.88 9.72 3.2L9.72 3.2 6.84-0.97Q7.92-1.62 8.21-1.98L8.21-1.98Q8.53-2.34 8.53-3.02L8.53-3.02 8.53-14.54 1.98-14.54 1.69-15.59 8.53-15.59 8.53-30.28 12.1-29.66 12.1-18.47Q16.06-20.77 19.91-23.72L19.91-23.72Q23.76-26.71 25.99-29.16L25.99-29.16 28.55-26.14Q25.56-23.72 21.1-21.38L21.1-21.38Q16.63-19.08 12.1-17.5L12.1-17.5 12.1-15.59 28.51-15.59Q28.55-18.36 31.54-18.36L31.54-18.36Q34.56-17.89 34.52-15.12L34.52-15.12Q34.38-14.54 33.52-14.54ZM57.71-8.86L57.71-30.31 61.06-29.88 61.06-10.22Q61.06-9.86 60.08-9.36L60.08-9.36Q59.15-8.86 58.25-8.86L58.25-8.86 57.71-8.86ZM51.77-23.83L51.77-23.83 55.22-22.46Q52.38-14.65 47.81-10.8L47.81-10.8 47.34-11.12Q50.33-16.42 51.77-23.83ZM65.63-14.15L65.63-14.15 68.51-11.56Q61.78 0.86 45.72 3.02L45.72 3.02 45.58 2.48Q60.26-1.73 65.63-14.15ZM37.91-6.95L37.91-7.67 39.56-7.67Q40-7.67 40.18-7.78 40.36-7.88 40.64-8.39L40.64-8.39Q41.51-9.76 49.25-24.48L49.25-24.48 49.82-24.26Q49.32-23.04 47.74-19.19L47.74-19.19Q46.19-15.34 45.18-12.82L45.18-12.82Q44.17-10.33 43.92-9.54L43.92-9.54Q43.24-7.56 43.24-6.26L43.24-6.26Q43.24-5.65 43.85-3.82L43.85-3.82Q44.5-2.02 44.42-0.36L44.42-0.36Q44.35 0.86 43.67 1.58 42.98 2.3 41.87 2.3L41.87 2.3Q40.54 2.3 40.21 0.54L40.21 0.54Q40.64-2.16 40.5-4.07L40.5-4.07Q40.39-6.01 39.74-6.41L39.74-6.41Q39.1-6.84 37.91-6.95L37.91-6.95ZM37.04-20.84L37.04-20.84 37.33-21.17Q41.98-20.84 43.27-18.58L43.27-18.58Q44.06-17.24 43.2-16.24L43.2-16.24Q42.37-15.23 40.97-15.91L40.97-15.91Q40.86-15.95 40.75-16.02L40.75-16.02Q40.36-17.24 39.28-18.58L39.28-18.58Q38.23-19.94 37.04-20.84ZM40.18-29.16L40.18-29.16 40.46-29.45Q45.36-29.02 46.76-26.68L46.76-26.68Q47.59-25.24 46.76-24.16L46.76-24.16Q45.94-23.11 44.5-23.76L44.5-23.76Q44.39-23.8 44.28-23.87L44.28-23.87Q43.81-25.24 42.62-26.71L42.62-26.71Q41.44-28.22 40.18-29.16ZM62.64-23.65L62.64-23.65 63-23.9Q68.62-22.03 70.31-18.61L70.31-18.61Q71.32-16.56 70.45-15.16L70.45-15.16Q69.66-13.9 68.26-14.47L68.26-14.47Q67.9-14.65 67.54-14.9L67.54-14.9Q67.25-17.03 65.81-19.44L65.81-19.44Q64.4-21.89 62.64-23.65ZM74.3-18.76L74.02-19.8 80.57-19.8 80.57-22.46 75.24-22.46 74.95-23.51 80.57-23.51 80.57-25.99 74.63-25.99 74.34-27.04 80.57-27.04 80.57-30.46 83.74-30.02 83.74-27.04 85.1-27.04Q85.18-29.05 87.48-29.05L87.48-29.05Q89.82-28.58 89.75-26.57L89.75-26.57Q89.6-25.99 88.81-25.99L88.81-25.99 83.74-25.99 83.74-23.51 85.21-23.51Q85.28-25.38 87.41-25.38L87.41-25.38Q89.57-24.91 89.5-23.04L89.5-23.04Q89.39-22.46 88.56-22.46L88.56-22.46 83.74-22.46 83.74-19.8 85.54-19.8Q85.64-21.85 88.02-21.85L88.02-21.85Q90.4-21.42 90.29-19.37L90.29-19.37Q90.14-18.76 89.35-18.76L89.35-18.76 83.74-18.76 83.74-17.03Q83.74-16.81 82.84-16.49L82.84-16.49Q81.97-16.16 81.14-16.16L81.14-16.16 80.57-16.16 80.57-18.76 74.3-18.76ZM78.19-5.54L78.19-5.54 78.77-5.54Q79.31-3.74 79.09-2.27L79.09-2.27Q78.88-0.83 78.3 0.07L78.3 0.07Q77.72 1.01 76.9 1.44L76.9 1.44Q76.14 1.84 75.28 1.69L75.28 1.69Q74.45 1.58 74.2 0.9L74.2 0.9Q73.73-0.47 75.38-1.26L75.38-1.26Q76.43-1.8 77.29-2.99L77.29-2.99Q78.16-4.21 78.19-5.54ZM98.42-4.21L98.86-4.21 98.96-0.58Q99.76-0.32 100.04 0L100.04 0Q100.37 0.29 100.37 0.76L100.37 0.76Q100.37 1.87 98.68 2.16L98.68 2.16Q96.98 2.48 91.26 2.48L91.26 2.48 86 2.48Q83.09 2.48 82.19 1.94 81.29 1.4 81.29-0.32L81.29-0.32 81.29-5.83 84.71-5.44 84.71-0.72Q84.71-0.36 85-0.25 85.28-0.14 86.47-0.14L86.47-0.14 91.55-0.14Q95.33-0.14 95.98-0.18L95.98-0.18Q96.66-0.22 96.95-0.65L96.95-0.65Q97.52-1.44 98.42-4.21L98.42-4.21ZM87.84-6.37L87.84-6.37 88.2-6.66Q92.2-6.12 93.17-4.07L93.17-4.07Q93.74-2.81 92.88-1.98L92.88-1.98Q92.02-1.12 90.79-1.94L90.79-1.94Q90.58-3.06 89.71-4.28L89.71-4.28Q88.85-5.54 87.84-6.37ZM99.29-5.18L99.29-5.18 99.61-5.44Q104.26-4.54 105.44-2.02L105.44-2.02Q106.16-0.54 105.34 0.47L105.34 0.47Q104.51 1.48 103.18 0.76L103.18 0.76Q103.07 0.68 102.96 0.61L102.96 0.61Q102.71-0.86 101.63-2.48 100.55-4.1 99.29-5.18ZM101.3-11.95L102.02-11.95Q102.13-13.97 104.44-13.97L104.44-13.97Q106.78-13.5 106.67-11.48L106.67-11.48Q106.56-10.91 105.73-10.91L105.73-10.91 101.3-10.91 101.3-6.88Q101.27-6.66 100.26-6.26L100.26-6.26Q99.29-5.87 98.53-5.87L98.53-5.87 97.96-5.87 97.96-7.16 77.98-7.16 77.65-8.21 97.96-8.21 97.96-10.91 74.81-10.91 74.52-11.95 97.96-11.95 97.96-14.54 78.23-14.54 77.94-15.59 97.6-15.59Q97.81-17.39 100.4-17.39L100.4-17.39Q102.92-16.52 102.71-14.72L102.71-14.72Q102.31-14.26 101.3-14.04L101.3-14.04 101.3-11.95ZM95.04-18.76L90.47-18.76 90.18-19.8 95.04-19.8 95.04-22.46 91.48-22.46 91.19-23.51 95.04-23.51 95.04-25.99 90.79-25.99 90.5-27.04 95.04-27.04 95.04-30.46 98.28-30.02 98.28-27.04 100.58-27.04Q100.66-29.16 103.03-29.16L103.03-29.16Q105.44-28.69 105.37-26.57L105.37-26.57Q105.26-25.99 104.44-25.99L104.44-25.99 98.28-25.99 98.28-23.51 100.37-23.51Q100.44-25.45 102.64-25.45L102.64-25.45Q104.9-24.98 104.83-23.04L104.83-23.04Q104.72-22.46 103.9-22.46L103.9-22.46 98.28-22.46 98.28-19.8 101.23-19.8Q101.38-21.85 103.75-21.85L103.75-21.85Q106.16-21.38 106.02-19.33L106.02-19.33Q105.91-18.76 105.12-18.76L105.12-18.76 98.28-18.76 98.28-17.24Q98.28-17.03 97.38-16.7L97.38-16.7Q96.48-16.42 95.65-16.42L95.65-16.42 95.04-16.42 95.04-18.76ZM124.24-26.39L124.24-26.39 124.52-26.71Q129.92-26.24 131.51-23.76L131.51-23.76Q132.44-22.32 131.65-21.2L131.65-21.2Q130.86-20.16 129.35-20.77L129.35-20.77Q129.24-20.81 129.13-20.88L129.13-20.88Q128.56-22.25 127.15-23.76L127.15-23.76Q125.75-25.31 124.24-26.39ZM122.9-17.53L122.9-17.53 123.19-17.86Q128.7-17.53 130.46-15.01L130.46-15.01Q131.44-13.57 130.68-12.42L130.68-12.42Q129.96-11.3 128.48-11.88L128.48-11.88Q128.34-11.95 128.16-12.02L128.16-12.02Q127.55-13.46 126-15.01L126-15.01Q124.49-16.6 122.9-17.53ZM123.26-16.16L123.26-16.16 123.41-15.7Q120.56-13.97 117.9-12.53L117.9-12.53 117.9-1.22Q117.9 0.83 117.07 1.76L117.07 1.76Q116.24 2.74 113.51 3.02L113.51 3.02Q113.33 1.26 112.75 0.65L112.75 0.65Q111.92-0.22 110.02-0.5L110.02-0.5 110.02-1.04Q113.18-0.83 113.87-0.83L113.87-0.83Q114.62-0.83 114.62-1.48L114.62-1.48 114.62-10.73Q114.12-10.48 112.93-9.86L112.93-9.86Q111.78-9.25 111.1-8.89L111.1-8.89Q110.84-8.14 110.27-7.92L110.27-7.92 108.76-12.06Q110.16-12.35 114.62-13.61L114.62-13.61 114.62-20.95 109.66-20.95 109.37-22 114.62-22 114.62-30.38 117.9-29.92 117.9-22 119.05-22Q118.94-24.59 121.36-24.59L121.36-24.59Q123.8-24.12 123.91-21.53L123.91-21.53Q123.77-20.95 122.94-20.95L122.94-20.95 117.9-20.95 117.9-14.58Q120.92-15.44 123.26-16.16ZM137.27-9.61L138.2-9.83 139.64-12.85Q141.91-11.48 143.35-10.51L143.35-10.51Q143.35-10.22 143.14-10.01 142.92-9.79 142.6-9.76L142.6-9.76 137.27-8.53 137.27 1.91Q137.27 2.2 136.33 2.59L136.33 2.59Q135.43 2.99 134.5 2.99L134.5 2.99 133.78 2.99 133.78-7.74 120.92-4.82 120.46-5.76 133.78-8.82 133.78-30.06 137.27-29.56 137.27-9.61ZM158.62-27.97L158.62-27.97 159.05-28.19Q163.51-26.53 164.52-23.8L164.52-23.8Q165.13-22.1 164.2-21.13L164.2-21.13Q163.3-20.16 162.04-21.06L162.04-21.06Q161.93-21.13 161.86-21.2L161.86-21.2Q161.53-24.44 158.62-27.97ZM162.58-12.24L162.58-7.42 173.16-7.42 173.16-12.24 162.58-12.24ZM173.16-13.28L173.16-18.07 162.58-18.07 162.58-13.28 173.16-13.28ZM169.6-19.12L172.8-19.12Q172.98-20.95 175.61-20.95L175.61-20.95Q178.16-20.02 177.98-18.18L177.98-18.18Q177.55-17.68 176.47-17.46L176.47-17.46 176.47-1.12Q176.47 0.9 175.61 1.84L175.61 1.84Q174.78 2.77 172.04 3.02L172.04 3.02Q171.86 1.3 171.32 0.68L171.32 0.68Q170.42-0.22 168.55-0.47L168.55-0.47 168.55-1.01Q171.65-0.79 172.4-0.79L172.4-0.79Q172.84-0.79 172.98-0.94L172.98-0.94Q173.16-1.12 173.16-1.48L173.16-1.48 173.16-6.37 162.58-6.37 162.58 1.87Q162.58 2.2 161.68 2.63L161.68 2.63Q160.81 3.06 159.8 3.06L159.8 3.06 159.3 3.06 159.3-11.16Q159.05-10.91 158.54-10.91L158.54-10.91 153.4-10.91 153.4-3.78Q154.04-4.21 155.74-5.33L155.74-5.33Q157.46-6.44 158.44-7.09L158.44-7.09 158.72-6.7Q156.13-3.2 152.53 0.65L152.53 0.65Q152.39 1.48 151.88 2.05L151.88 2.05 148.57-0.97Q149.62-1.84 149.9-2.16L149.9-2.16Q150.19-2.52 150.19-2.99L150.19-2.99 150.19-10.91 145.19-10.91 144.9-11.95 150.19-11.95 150.19-17.93 147.49-17.93 147.31-18.58 153.68-18.94Q153.65-21.2 156.06-21.31L156.06-21.31Q158.47-20.77 158.51-18.5L158.51-18.5Q158.36-17.93 157.54-17.93L157.54-17.93 153.4-17.93 153.4-11.95 154.66-11.95 156.35-14.29Q158.15-12.82 159.3-11.66L159.3-11.66 159.3-19.12 166.36-19.12 166.36-30.42 169.6-29.99 169.6-19.12ZM174.17-28.76L174.17-28.76 176.98-26.64Q174.1-22.57 171.5-20.3L171.5-20.3 171.07-20.7Q173.12-24.88 174.17-28.76ZM147.64-18.94L147.64-18.94Q146.41-17.46 145.19-16.38L145.19-16.38 144.79-16.67Q146.34-19.19 147.71-23.29L147.71-23.29Q149.11-27.43 149.65-30.49L149.65-30.49 152.96-28.98Q152.6-27.22 151.7-25.31L151.7-25.31 154.37-25.31Q154.44-27.54 156.85-27.54L156.85-27.54Q159.3-27.07 159.23-24.84L159.23-24.84Q159.08-24.26 158.26-24.26L158.26-24.26 151.16-24.26Q149.65-21.53 147.64-18.94Z" transform="translate(-1.690000057220459, 30.489999771118164)"></path></g> <!----> <!----> <!----> <!----> <!----> <!----> <!----></g></g> <g data-gra="path-slogan" fill-rule="" class="tp-slogan iconsvg-slogansvg" fill="#0b56a6" transform="translate(5,39.689998626708984)"><rect x="0" height="1" y="3.9750003814697266" width="7.240936279296875"></rect> <rect height="1" y="3.9750003814697266" width="7.240936279296875" x="159.06092834472656"></rect> <g transform="translate(10.240936279296875,0)"><g transform="scale(1)"><path d="M8.06-6.05L8.06-6.05L6.94-6.05Q6.52-7.78 4.55-7.83L4.55-7.83Q1.83-7.69 1.73-4.36L1.73-4.36Q1.73-0.80 4.59-0.80L4.59-0.80Q6.56-0.84 7.03-3.19L7.03-3.19L8.16-3.19Q7.64 0.05 4.36 0.14L4.36 0.14Q0.61 0 0.52-4.31L0.52-4.31Q0.70-8.63 4.55-8.81L4.55-8.81Q7.59-8.72 8.06-6.05ZM10.69-5.06L15.19-5.06L15.19-8.58L16.36-8.58L16.36 0L15.19 0L15.19-3.98L10.69-3.98L10.69 0L9.52 0L9.52-8.58L10.69-8.58L10.69-5.06ZM23.81 0L22.97-2.48L19.50-2.48L18.61 0L17.44 0L20.67-8.58L21.98-8.58L25.08 0L23.81 0ZM21.23-7.31L19.88-3.52L22.55-3.52L21.28-7.31L21.23-7.31ZM27.52-8.58L31.83-1.64L31.83-8.58L32.95-8.58L32.95 0L31.64 0L27.28-6.94L27.23-6.94L27.23 0L26.11 0L26.11-8.58L27.52-8.58ZM41.16-3.61L38.53-3.61L38.53-4.59L42.28-4.59L42.28 0L41.53 0L41.25-1.08Q40.27 0.09 38.44 0.14L38.44 0.14Q36.70 0.14 35.77-0.75L35.77-0.75Q34.36-2.06 34.41-4.36L34.41-4.36Q34.73-8.63 38.48-8.81L38.48-8.81Q41.67-8.63 42.14-6L42.14-6L41.02-6Q40.55-7.78 38.44-7.83L38.44-7.83Q35.77-7.64 35.63-4.31L35.63-4.31Q35.63-0.75 38.48-0.75L38.48-0.75Q39.52-0.75 40.27-1.31L40.27-1.31Q41.20-2.06 41.16-3.61L41.16-3.61ZM50.34-6.09L50.34-6.09L49.27-6.09Q49.17-7.73 47.11-7.83L47.11-7.83Q45.19-7.78 45.19-6.33L45.19-6.33Q45.19-5.39 46.22-5.25L46.22-5.25L48.66-4.69Q50.58-4.22 50.58-2.34L50.58-2.34Q50.53 0.05 47.20 0.14L47.20 0.14Q45.38 0.14 44.63-0.61L44.63-0.61Q43.69-1.31 43.73-2.77L43.73-2.77L44.86-2.77Q44.91-0.80 47.20-0.75L47.20-0.75Q49.45-0.80 49.50-2.20L49.50-2.20Q49.69-3.38 47.63-3.75L47.63-3.75L45.84-4.13Q44.02-4.64 44.02-6.19L44.02-6.19Q44.16-8.72 47.02-8.81L47.02-8.81Q50.25-8.81 50.34-6.09ZM53.20-5.06L57.70-5.06L57.70-8.58L58.88-8.58L58.88 0L57.70 0L57.70-3.98L53.20-3.98L53.20 0L52.03 0L52.03-8.58L53.20-8.58L53.20-5.06ZM66.33 0L65.48-2.48L62.02-2.48L61.13 0L59.95 0L63.19-8.58L64.50-8.58L67.59 0L66.33 0ZM63.75-7.31L62.39-3.52L65.06-3.52L63.80-7.31L63.75-7.31ZM73.13-5.06L77.63-5.06L77.63-8.58L78.80-8.58L78.80 0L77.63 0L77.63-3.98L73.13-3.98L73.13 0L71.95 0L71.95-8.58L73.13-8.58L73.13-5.06ZM86.25-3.19L86.25-8.58L87.42-8.58L87.42-3.05Q87.28 0.05 83.91 0.14L83.91 0.14Q80.77 0.05 80.63-2.86L80.63-2.86L80.63-8.58L81.80-8.58L81.80-3.19Q81.84-0.84 83.95-0.80L83.95-0.80Q86.25-0.84 86.25-3.19L86.25-3.19ZM89.39-8.58L90.56-8.58L90.56 0L89.39 0L89.39-8.58ZM96.05 0L92.58 0L92.58-8.58L96.09-8.58Q99.56-8.39 99.70-4.41L99.70-4.41Q99.52-0.09 96.05 0L96.05 0ZM95.91-7.64L93.75-7.64L93.75-0.98L96-0.98Q98.44-1.13 98.53-4.31L98.53-4.31Q98.48-7.55 95.91-7.64L95.91-7.64ZM107.95-4.27L107.95-4.27Q107.77-7.64 104.95-7.83L104.95-7.83Q102.09-7.69 101.95-4.27L101.95-4.27Q102.09-0.94 104.95-0.80L104.95-0.80Q107.77-0.98 107.95-4.27ZM109.13-4.27L109.13-4.27Q108.84 0 104.95 0.14L104.95 0.14Q101.02 0 100.73-4.27L100.73-4.27Q100.97-8.72 104.95-8.81L104.95-8.81Q108.84-8.67 109.13-4.27ZM116.16-3.19L116.16-8.58L117.33-8.58L117.33-3.05Q117.19 0.05 113.81 0.14L113.81 0.14Q110.67 0.05 110.53-2.86L110.53-2.86L110.53-8.58L111.70-8.58L111.70-3.19Q111.75-0.84 113.86-0.80L113.86-0.80Q116.16-0.84 116.16-3.19L116.16-3.19ZM125.86-8.58L122.95-4.41L126 0L124.55 0L122.20-3.52L119.86 0L118.45 0L121.55-4.41L118.64-8.58L120.09-8.58L122.25-5.30L124.45-8.58L125.86-8.58ZM127.27-8.58L128.44-8.58L128.44 0L127.27 0L127.27-8.58ZM136.08 0L135.23-2.48L131.77-2.48L130.88 0L129.70 0L132.94-8.58L134.25-8.58L137.34 0L136.08 0ZM133.50-7.31L132.14-3.52L134.81-3.52L133.55-7.31L133.50-7.31ZM145.17-4.27L145.17-4.27Q144.98-7.64 142.17-7.83L142.17-7.83Q139.31-7.69 139.17-4.27L139.17-4.27Q139.31-0.94 142.17-0.80L142.17-0.80Q144.98-0.98 145.17-4.27ZM146.34-4.27L146.34-4.27Q146.06 0 142.17 0.14L142.17 0.14Q138.23 0 137.95-4.27L137.95-4.27Q138.19-8.72 142.17-8.81L142.17-8.81Q146.06-8.67 146.34-4.27Z" transform="translate(-0.515625, 8.8125)"></path></g></g></g></g></g><defs v-gra="od"></defs></svg>